<svg width="200" height="159" viewBox="0 0 200 159" fill="none" xmlns="http://www.w3.org/2000/svg">
<path d="M50.8659 26.6118L51.245 5.82192C52.4058 7.27977 53.3136 8.91969 53.931 10.6741L61.1406 28.6981C57.7979 27.6419 54.3514 26.9425 50.8594 26.6118M49.992 74.2655L50.8241 28.6471C62.2169 31.5182 66.4643 39.5444 66.4643 51.1213C66.4643 63.7254 60.8289 71.6496 49.992 74.2687M41.2049 75.2257C36.1288 75.3161 31.069 74.6285 26.204 73.1872V27.6326L38.6763 27.4763C42.258 27.3541 45.8424 27.6302 49.3623 28.2994L48.1928 74.6196C45.8824 75.0319 43.5393 75.2358 41.192 75.2289M193.841 114.786L199.524 114.148L200 113.207H160.228L160.704 114.148L166.859 114.617C175.071 115.089 176.498 115.555 176.498 116.652V151.105C172.395 154.394 161.655 156.43 154.236 156.43C128.816 156.43 110.657 136.855 110.657 107.267C110.657 89.0611 117.42 73.7136 128.986 64.9313L129.568 93.9611C129.568 95.0585 128.302 95.8401 123.091 96.3091L115.515 96.9471L115.039 97.8881H153.722L153.247 96.9471L148.668 96.4781C140.932 95.6965 139.826 95.5402 139.826 94.4428L139.213 59.3964C143.729 57.7992 148.491 56.995 153.285 57.0198C161.871 56.6992 170.336 59.1125 177.443 63.9072L187.402 85.0416H188.508L188.032 58.8828L180.299 62.4812C172.26 57.7774 163.101 55.2906 153.77 55.278C148.858 55.2643 143.962 55.8374 139.187 56.9847L138.262 3.92381C138.262 2.8296 139.525 2.04486 144.736 1.57592L152.627 0.937909L153.102 0H128.787L94.2104 83.9219H94.053L60.2634 0H34.2136L34.6859 0.937909L38.9494 1.25689C42.76 1.38868 46.5106 2.23852 50.0016 3.76113L49.4329 26.4778C47.3767 26.3087 45.2369 26.2035 42.9654 26.2035H0.15423L0.629716 27.1413L6.78878 27.6135C14.9976 28.2515 15.9454 28.5546 15.9454 29.6488V120.145C15.9454 121.243 13.8924 122.024 8.36628 122.493L0.472299 123.131L0 124.072H43.5791L43.1036 123.131L35.3671 122.659C27.155 122.19 26.2105 121.721 26.2105 120.624V75.2289C31.1807 75.9459 36.1901 76.3635 41.2112 76.4794C43.5392 76.4818 45.8652 76.3455 48.1767 76.0711L47.7751 92.0853C47.7751 95.0617 43.5117 96.1559 36.5655 96.7812L32.2988 96.9375L31.8265 97.8786H68.1317L67.6563 96.9375L64.8129 96.7812C54.853 96.3122 49.6546 94.4333 49.6546 92.398L49.9567 75.8095C61.2691 74.0709 69.8764 68.9125 74.2201 61.3902L88.8161 97.8658H89.7606L127.656 6.7407H127.814L128.884 60.58C119.835 64.8883 112.238 71.7074 107.01 80.2126C101.783 88.7178 99.1493 98.5447 99.4281 108.505C99.4281 138.096 122.005 158.14 153.112 158.14C166.374 158.14 185.006 152.972 196.848 147.963L196.691 147.325L186.268 148.891V117.109C186.268 116.011 188.321 115.23 193.847 114.761" fill="black"/>
</svg>
