<svg xmlns="http://www.w3.org/2000/svg" width="155.7" height="33.41"><defs><clipPath id="a"><path fill="none" d="M0 0h155.7v33.41H0z"/></clipPath></defs><g data-name="Component 13" clip-path="url(#a)" fill="#292728"><path data-name="Path 1" d="M146.58 22.44h-1.76V11.66h1.89c3.77 0 5.32 1.79 5.32 5.4 0 3.22-1.7 5.38-5.45 5.38m.25-14.2h-5.57v17.63h5.32c4.59 0 9.12-2.62 9.12-8.82 0-6.45-3.77-8.8-8.87-8.8"/><path data-name="Path 2" d="M19.07 18h11.1v11.78h-11.1zM3.7 3.64h26.48v10.72H15.4v15.42H3.69zM0 33.41h33.85V0H0z"/><path data-name="Path 3" d="M62.6 25.87V8.24H75v3.45h-8.82v3.05h5.12v3.42h-5.12v4.25h9.2v3.46z"/><path data-name="Path 4" d="M78.28 25.87V8.24h3.57V22.4h8.93v3.48z"/><path data-name="Path 5" d="M99.76 18.59l1.14-3.2c.36-1.03.71-2.09.89-2.75.17.67.53 1.72.9 2.75l1.15 3.2zm3.84-10.35h-3.46L93.3 25.87h3.82l1.4-3.93h6.52l1.4 3.93h3.93z"/><path data-name="Path 6" d="M117.93 11.72v14.15h-3.57V11.72h-5.12V8.24h13.8v3.48z"/><path data-name="Path 7" d="M125.59 25.87V8.24h12.39v3.45h-8.83v3.05h5.13v3.42h-5.13v4.25h9.2v3.46z"/><path data-name="Path 8" d="M53.54 16.2h-4.67v-4.54h4.67c1.58 0 2.55.66 2.55 2.25 0 1.53-.9 2.28-2.55 2.28m6.22-2.36c0-3.75-2.78-5.59-6.15-5.59h-8.3v17.63h3.56v-6.35h3.6l3.18 6.35h4.1L56.33 19a5.02 5.02 0 0 0 3.42-5.18"/></g></svg>