<?xml version="1.0" encoding="UTF-8"?>
<svg id="Layer_1" xmlns="http://www.w3.org/2000/svg" version="1.1" viewBox="0 0 2000 587.95">
  <!-- Generator: Adobe Illustrator 29.8.2, SVG Export Plug-In . SVG Version: 2.1.1 Build 3)  -->
  <path d="M228.29,90.01H0V0h563.93v90.01h-229.12v488.03h-106.52V90.01Z"/>
  <path d="M437.2,370.77c0-126.34,95.79-217.18,237.82-217.18s233.69,85.05,233.69,227.91c0,.82,0,11.56-.82,16.52h-364.99c9.91,64.41,61.1,104.87,136.25,104.87,56.98,0,105.7-23.12,118.91-56.98h105.7c-19.82,86.71-111.48,142.03-226.26,142.03-145.34,0-240.3-89.18-240.3-217.18ZM797.24,327.83c-9.08-53.67-56.15-90.01-122.21-90.01s-113.96,35.51-128.82,90.01h251.03Z"/>
  <path d="M970.27,163.5h89.18l6.61,65.24h4.95c18.99-42.94,72.67-70.19,140.38-70.19,12.39,0,26.42.82,34.68,2.48v101.57c-13.21-1.65-23.95-3.31-36.33-3.31-90.01,0-140.38,52.85-140.38,148.64v170.11h-99.09V163.5Z"/>
  <path d="M1301.4,163.5h89.18l6.61,65.24h4.95c18.99-42.94,72.67-70.19,140.38-70.19,12.39,0,26.42.82,34.68,2.48v101.57c-13.21-1.65-23.95-3.31-36.33-3.31-90.01,0-140.38,52.85-140.38,148.64v170.11h-99.09V163.5Z"/>
  <path d="M1918.01,578.04s-3.63-35.82-6.36-62.76h-4.96c-27.25,46.24-80.93,72.67-152.77,72.67-95.79,0-155.25-46.24-155.25-123.87,0-88.36,75.15-132.95,231.22-140.38l71.02-3.3c0-53.67-34.68-84.23-95.79-84.23-49.55,0-82.58,20.64-93.31,60.28h-103.22c10.74-83.4,90.84-142.86,198.19-142.86,115.61,0,193.23,70.19,193.23,179.19v245.26h-81.99ZM1774.56,505.37c75.14,0,126.34-47.07,126.34-113.13v-6.61l-60.28,3.31c-91.66,4.95-137.08,28.07-137.08,69.36,0,31.38,26.42,47.07,71.02,47.07Z"/>
</svg>